<?xml version="1.0" encoding="UTF-8"?>
<svg xmlns="http://www.w3.org/2000/svg" xmlns:xlink="http://www.w3.org/1999/xlink" width="210.473" height="62.5225" viewBox="0 0 210.473 62.5225">
<defs>
<clipPath id="clip-0">
<path clip-rule="nonzero" d="M 0 0 L 210.472656 0 L 210.472656 62.523438 L 0 62.523438 Z M 0 0 "/>
</clipPath>
</defs>
<g clip-path="url(#clip-0)">
<path fill-rule="nonzero" fill="rgb(100%, 100%, 100%)" fill-opacity="1" d="M 0 62.523438 L 210.472656 62.523438 L 210.472656 0 L 0 0 Z M 0 62.523438 "/>
</g>
<path fill-rule="nonzero" fill="rgb(5.410767%, 53.253174%, 82.785034%)" fill-opacity="1" d="M 193.199219 35.726562 L 193.199219 29.574219 L 190.640625 29.574219 L 190.640625 28.589844 L 197.246094 28.589844 L 197.246094 29.574219 L 194.6875 29.574219 L 194.6875 35.726562 Z M 193.199219 35.726562 "/>
<path fill-rule="nonzero" fill="rgb(13.729858%, 12.159729%, 12.548828%)" fill-opacity="1" d="M 25.84375 48.792969 L 13.503906 15.441406 L 20.910156 15.441406 L 30.484375 41.25 L 39.761719 15.441406 L 44.738281 15.441406 L 32.78125 48.792969 Z M 25.84375 48.792969 "/>
<path fill-rule="nonzero" fill="rgb(13.729858%, 12.159729%, 12.548828%)" fill-opacity="1" d="M 48.773438 15.445312 L 55.714844 15.445312 L 55.714844 35.898438 C 55.714844 39.597656 56.34375 42.046875 57.597656 43.25 C 58.851562 44.453125 60.480469 45.050781 62.476562 45.050781 C 64.445312 45.050781 66.011719 44.460938 67.175781 43.273438 C 68.339844 42.082031 68.921875 39.792969 68.921875 36.394531 L 68.921875 15.445312 L 74.960938 15.445312 L 74.960938 35.925781 C 74.960938 39.789062 74.476562 42.554688 73.507812 44.230469 C 72.539062 45.90625 71.136719 47.222656 69.304688 48.1875 C 67.472656 49.148438 65.152344 49.628906 62.34375 49.628906 C 59.578125 49.628906 57.203125 49.179688 55.21875 48.289062 C 53.238281 47.394531 51.667969 46.0625 50.511719 44.296875 C 49.351562 42.535156 48.773438 39.71875 48.773438 35.859375 Z M 48.773438 15.445312 "/>
<path fill-rule="nonzero" fill="rgb(100%, 100%, 100%)" fill-opacity="1" d="M 84.46875 40.636719 L 84.46875 41.523438 L 84.730469 41.289062 C 84.667969 41.039062 84.617188 40.792969 84.570312 40.542969 Z M 84.46875 40.636719 "/>
<path fill-rule="nonzero" fill="rgb(5.410767%, 53.253174%, 82.785034%)" fill-opacity="1" d="M 88.921875 30.808594 C 88.921875 30.664062 89.03125 30.519531 89.179688 30.519531 C 89.328125 30.519531 89.4375 30.664062 89.4375 30.808594 C 89.4375 30.957031 89.328125 31.066406 89.179688 31.066406 C 89.03125 31.066406 88.921875 30.957031 88.921875 30.808594 "/>
<path fill-rule="nonzero" fill="rgb(5.410767%, 53.253174%, 82.785034%)" fill-opacity="1" d="M 105.371094 38.90625 C 104.972656 37.804688 103.902344 37.066406 102.429688 37.179688 C 101.621094 35.632812 100.332031 36.363281 99.964844 36.8125 C 100.367188 37.179688 100.695312 37.328125 101.175781 37.398438 L 101.175781 37.730469 C 100.257812 37.695312 99.964844 37.328125 99.339844 36.660156 C 99.082031 38.871094 101.65625 39.648438 102.464844 37.84375 C 103.679688 37.804688 104.417969 38.355469 104.675781 39.128906 C 104.929688 39.898438 104.675781 40.75 104.269531 41.152344 C 103.535156 42.035156 102.355469 42.035156 101.289062 41.480469 C 100.628906 41.152344 99.925781 40.453125 99.300781 39.792969 C 98.386719 38.761719 97.863281 38.316406 97.164062 37.949219 C 96.777344 37.765625 96.394531 37.675781 96.019531 37.621094 C 95.800781 37.578125 95.582031 37.550781 95.363281 37.546875 C 95.148438 37.546875 94.957031 37.566406 94.777344 37.601562 C 93.203125 37.777344 91.605469 38.550781 89.695312 38.722656 L 88.664062 38.722656 C 88.023438 39.28125 87.460938 39.777344 86.96875 40.214844 L 85.757812 41.261719 C 85.761719 41.273438 85.769531 41.28125 85.769531 41.289062 C 85.25 41.761719 84.949219 42.035156 84.949219 42.035156 C 85.09375 43.175781 85.128906 43.726562 85.128906 44.757812 C 85.128906 45.605469 85.09375 46.015625 85.09375 46.382812 C 85.058594 46.746094 84.980469 47.042969 84.875 47.335938 C 84.800781 47.59375 84.578125 47.8125 84.210938 47.851562 C 83.878906 47.921875 83.101562 47.335938 82.847656 47.703125 C 82.628906 48 82.886719 48.699219 83.101562 48.878906 L 85.277344 48.878906 C 85.535156 48.332031 85.644531 48 85.792969 47.671875 C 85.980469 47.410156 86.128906 47.003906 86.269531 46.746094 C 86.421875 46.492188 86.566406 46.121094 86.640625 45.867188 C 86.675781 45.605469 86.789062 45.347656 86.824219 45.167969 C 86.976562 44.757812 87.191406 44.386719 87.339844 44.175781 C 87.375 44.105469 87.417969 44.050781 87.457031 43.992188 C 87.554688 44.136719 87.644531 44.277344 87.707031 44.386719 C 88.226562 45.199219 88.664062 45.828125 89.402344 46.121094 C 89.695312 46.265625 89.878906 46.382812 89.988281 46.492188 C 90.097656 46.597656 90.097656 46.933594 90.0625 47.148438 C 90.0625 47.449219 89.949219 47.703125 89.660156 47.8125 C 89.179688 48 88.410156 47.300781 88.109375 47.671875 C 87.855469 47.964844 88.148438 48.515625 88.410156 48.878906 L 90.390625 48.878906 C 90.875 48.109375 91.058594 47.042969 91.058594 46.15625 C 91.058594 45.238281 91.058594 45.015625 90.503906 44.796875 C 90.320312 44.683594 90.136719 44.242188 89.988281 43.765625 C 89.988281 43.710938 89.992188 43.617188 89.992188 43.511719 C 90.941406 43.199219 91.988281 42.644531 93.132812 41.800781 C 93.140625 41.953125 93.144531 42.105469 93.15625 42.257812 C 93.339844 43.511719 93.484375 44.648438 94.445312 45.570312 C 94.699219 45.828125 94.917969 46.085938 94.957031 46.234375 C 94.957031 46.34375 94.808594 46.746094 94.699219 46.933594 C 94.480469 47.410156 94.003906 47.8125 93.636719 47.851562 C 93.15625 47.921875 92.601562 47.300781 92.230469 47.671875 C 91.902344 48 92.34375 48.699219 92.566406 48.878906 L 94.589844 48.878906 C 95.253906 47.671875 96.171875 46.636719 96.503906 45.972656 C 96.6875 45.496094 96.6875 45.308594 96.316406 45.167969 C 95.65625 44.796875 95.730469 43.988281 95.914062 43.066406 C 95.964844 42.914062 96.039062 42.761719 96.121094 42.613281 C 96.621094 44.007812 97.273438 45.308594 98.785156 45.714844 C 99.042969 45.75 99.410156 45.9375 99.449219 46.015625 C 99.449219 46.085938 99.449219 46.382812 99.410156 46.597656 C 99.339844 47.042969 99.082031 47.558594 98.746094 47.8125 C 98.386719 48.109375 97.464844 47.148438 97.164062 47.703125 C 96.945312 48.148438 97.3125 48.734375 97.5 48.878906 L 99.449219 48.878906 C 100 47.671875 100.480469 46.597656 100.628906 45.828125 C 100.773438 44.90625 100.773438 44.574219 100.074219 44.429688 C 99.707031 44.386719 99.410156 44.242188 99.300781 43.726562 C 99.042969 42.808594 99.082031 41.261719 98.386719 40.199219 C 99.15625 41.113281 100 41.777344 100.734375 42.148438 C 102.429688 43.066406 104.195312 42.730469 105.039062 41.519531 C 105.59375 40.597656 105.59375 39.570312 105.371094 38.90625 "/>
<path fill-rule="nonzero" fill="rgb(5.410767%, 53.253174%, 82.785034%)" fill-opacity="1" d="M 96.539062 28.675781 C 100.921875 24.519531 106.921875 20.101562 114.503906 18.226562 C 108.101562 20.503906 99.300781 26.507812 96.539062 28.675781 M 84.027344 26.542969 C 84.726562 19.03125 88.148438 13.515625 90.472656 10.976562 C 87.121094 15.90625 85.207031 22.753906 84.027344 26.542969 M 87.226562 27.570312 C 87.191406 27.277344 87.046875 27.097656 86.789062 26.945312 C 87.304688 25.695312 87.8125 24.699219 88.8125 23.375 C 87.890625 25.21875 87.449219 26.761719 87.226562 27.570312 M 122.269531 15.574219 C 120.757812 15.390625 117.332031 15.757812 114.390625 16.417969 C 116.230469 15.5 116.746094 15.355469 117.410156 14.945312 C 117.589844 14.839844 117.703125 14.578125 117.703125 14.175781 C 117.703125 13.734375 117.300781 13.660156 116.824219 13.734375 C 116.339844 13.769531 115.3125 14.136719 114.058594 14.578125 C 111.554688 15.609375 107.953125 17.300781 103.679688 20.179688 C 99.925781 22.753906 97.425781 24.957031 94.699219 27.71875 C 93.988281 28.445312 93.171875 29.351562 92.320312 30.355469 C 92.128906 30.023438 92.015625 29.945312 91.683594 30.039062 C 92.640625 27.867188 92.746094 27.753906 93.265625 26.507812 C 93.484375 25.914062 93.375 25.472656 93.15625 25.21875 C 92.859375 24.699219 92.453125 25.070312 92.199219 25.257812 C 91.796875 25.734375 91.683594 25.84375 90.800781 26.945312 C 91.902344 23.265625 92.492188 22.972656 93.523438 20.871094 C 93.636719 20.617188 93.636719 20.179688 93.484375 19.84375 C 93.375 19.585938 93.226562 19.4375 93.007812 19.550781 C 92.601562 19.734375 92.492188 19.949219 91.71875 20.871094 C 92.820312 18.773438 94.332031 16.308594 94.480469 15.90625 C 94.664062 15.464844 94.917969 15.390625 94.445312 14.730469 C 94.074219 14.175781 93.746094 14.578125 93.484375 14.839844 C 93.265625 14.945312 92.820312 15.464844 92.050781 16.386719 C 93.667969 13.363281 95.183594 11.96875 95.472656 11.453125 C 95.839844 10.863281 95.878906 10.714844 95.585938 10.054688 C 95.324219 9.464844 94.808594 9.722656 94.554688 10.054688 C 93.410156 11.15625 93.484375 10.902344 91.570312 13.109375 C 92.566406 10.492188 94.300781 8.507812 94.917969 7.476562 C 95.183594 7.074219 95.214844 6.925781 94.957031 5.929688 C 94.808594 5.488281 94.445312 5.339844 94.074219 5.375 C 93.523438 5.488281 93.007812 5.785156 91.976562 6.664062 C 89.878906 8.542969 87.085938 11.269531 84.800781 16.164062 C 82.589844 20.761719 82.113281 25.109375 82.113281 28.085938 C 82.113281 32.71875 83.324219 36.726562 84.445312 39.246094 C 84.441406 39.152344 84.433594 39.078125 84.429688 38.980469 C 84.359375 37.730469 84.578125 36.292969 84.800781 35.597656 C 85.265625 33.753906 85.875 32.765625 86.386719 31.964844 L 85.496094 30.738281 L 86.675781 31.105469 L 85.980469 29.558594 C 85.980469 29.558594 86.867188 29.660156 87.554688 30.574219 C 87.980469 30.1875 88.851562 29.847656 89.695312 30.519531 C 90.246094 30.480469 90.578125 30.59375 90.875 30.738281 C 91.5 31.105469 91.425781 31.769531 91.386719 31.914062 C 91.058594 31.621094 90.136719 31.03125 89.144531 31.804688 L 90.984375 32.433594 L 88.664062 32.613281 L 88.664062 35.011719 L 85.902344 37.46875 L 85.902344 38.410156 L 87.789062 36.746094 L 87.789062 37.617188 L 84.464844 40.609375 L 84.464844 41.519531 L 88.664062 37.742188 L 88.664062 37.75 L 89.722656 36.804688 L 89.730469 36.8125 C 90.355469 36.292969 90.613281 36.039062 90.984375 35.855469 C 91.425781 35.558594 91.5 35.886719 91.570312 36.367188 C 91.683594 36.769531 92.160156 37.179688 93.15625 36.257812 C 96.101562 33.605469 99.191406 32.171875 102.464844 30.59375 C 100.695312 31.804688 97.425781 33.605469 96.316406 34.824219 C 95.839844 35.375 96.316406 36.734375 97.089844 36.148438 C 98.492188 35.226562 100.332031 35.082031 101.25 35.117188 C 101.691406 35.117188 102.171875 34.824219 102.429688 34.453125 C 102.6875 34.121094 102.6875 33.753906 102.101562 33.714844 C 105.117188 32.800781 105.890625 32.539062 108.394531 32.320312 C 109.054688 32.28125 109.460938 31.914062 109.570312 31.359375 C 109.683594 30.847656 109.421875 30.699219 108.800781 30.625 C 108.0625 30.519531 106.769531 30.738281 105.484375 30.957031 C 108.394531 29.707031 111.925781 29.042969 114.722656 28.234375 C 115.605469 27.980469 115.71875 27.71875 115.753906 27.203125 C 115.859375 26.652344 115.421875 26.652344 114.425781 26.652344 C 112.40625 26.761719 109.386719 26.945312 104.785156 28.273438 C 109.128906 26.101562 111.554688 25.070312 115.496094 24.078125 C 116.5625 23.78125 116.746094 23.523438 116.824219 22.972656 C 117.007812 22.34375 116.488281 22.34375 116.121094 22.417969 C 115.570312 22.457031 114.246094 22.417969 111.554688 23.226562 C 114.175781 22.089844 117.039062 20.761719 119.101562 20.101562 C 119.546875 19.949219 119.800781 19.660156 119.800781 19.179688 C 119.800781 18.8125 119.691406 18.773438 119.253906 18.773438 C 118.367188 18.773438 116.929688 19.070312 115.203125 19.585938 C 118.734375 18.078125 119.800781 17.558594 122.15625 17.15625 C 122.929688 16.972656 123.078125 16.714844 123.113281 16.238281 C 123.226562 15.574219 122.78125 15.609375 122.269531 15.574219 "/>
<path fill-rule="nonzero" fill="rgb(5.410767%, 53.253174%, 82.785034%)" fill-opacity="1" d="M 131.945312 22.6875 L 129.304688 15.546875 L 130.886719 15.546875 L 132.933594 21.070312 L 134.925781 15.546875 L 135.988281 15.546875 L 133.425781 22.6875 Z M 131.945312 22.6875 "/>
<path fill-rule="nonzero" fill="rgb(5.410767%, 53.253174%, 82.785034%)" fill-opacity="1" d="M 136.941406 22.6875 L 136.941406 15.546875 L 139.613281 15.546875 C 140.15625 15.546875 140.574219 15.613281 140.859375 15.75 C 141.148438 15.886719 141.375 16.09375 141.539062 16.375 C 141.703125 16.652344 141.789062 16.964844 141.789062 17.316406 C 141.789062 17.734375 141.667969 18.128906 141.425781 18.5 C 141.183594 18.875 140.839844 19.15625 140.402344 19.351562 L 142.738281 22.6875 L 140.929688 22.6875 L 139.15625 19.765625 L 138.339844 19.765625 L 138.339844 22.6875 Z M 138.339844 18.789062 L 138.679688 18.789062 C 139.292969 18.789062 139.714844 18.65625 139.949219 18.386719 C 140.183594 18.121094 140.300781 17.820312 140.300781 17.480469 C 140.300781 17.1875 140.207031 16.957031 140.015625 16.785156 C 139.824219 16.613281 139.4375 16.523438 138.855469 16.523438 L 138.339844 16.523438 Z M 138.339844 18.789062 "/>
<path fill-rule="nonzero" fill="rgb(5.410767%, 53.253174%, 82.785034%)" fill-opacity="1" d="M 143.699219 15.546875 L 145.1875 15.546875 L 145.1875 22.6875 L 143.699219 22.6875 Z M 143.699219 15.546875 "/>
<path fill-rule="nonzero" fill="rgb(5.410767%, 53.253174%, 82.785034%)" fill-opacity="1" d="M 145.757812 23.941406 L 145.742188 22.878906 C 146.128906 23.03125 146.53125 23.105469 146.941406 23.105469 C 147.113281 23.105469 147.269531 23.074219 147.402344 23.007812 C 147.535156 22.945312 147.636719 22.839844 147.71875 22.699219 C 147.796875 22.550781 147.835938 22.253906 147.835938 21.796875 L 147.835938 15.546875 L 149.320312 15.546875 L 149.320312 21.640625 C 149.320312 22.308594 149.246094 22.796875 149.09375 23.101562 C 148.9375 23.40625 148.695312 23.652344 148.363281 23.835938 C 148.035156 24.023438 147.597656 24.113281 147.042969 24.113281 C 146.636719 24.113281 146.207031 24.058594 145.757812 23.941406 "/>
<path fill-rule="nonzero" fill="rgb(5.410767%, 53.253174%, 82.785034%)" fill-opacity="1" d="M 151.125 22.6875 L 151.125 15.546875 L 155.699219 15.546875 L 155.699219 16.53125 L 152.613281 16.53125 L 152.613281 18.519531 L 155.164062 18.519531 L 155.164062 19.5 L 152.613281 19.5 L 152.613281 21.671875 L 155.925781 21.671875 L 155.925781 22.6875 Z M 151.125 22.6875 "/>
<path fill-rule="nonzero" fill="rgb(5.410767%, 53.253174%, 82.785034%)" fill-opacity="1" d="M 130.015625 28.589844 L 131.503906 28.589844 L 131.503906 32.96875 C 131.503906 33.757812 131.636719 34.28125 131.90625 34.542969 C 132.171875 34.800781 132.519531 34.925781 132.949219 34.925781 C 133.371094 34.925781 133.707031 34.800781 133.953125 34.542969 C 134.203125 34.292969 134.328125 33.800781 134.328125 33.070312 L 134.328125 28.589844 L 135.621094 28.589844 L 135.621094 32.972656 C 135.621094 33.800781 135.519531 34.394531 135.308594 34.75 C 135.101562 35.109375 134.804688 35.394531 134.414062 35.597656 C 134.019531 35.804688 133.519531 35.90625 132.917969 35.90625 C 132.328125 35.90625 131.820312 35.8125 131.398438 35.617188 C 130.972656 35.425781 130.636719 35.144531 130.386719 34.765625 C 130.140625 34.386719 130.015625 33.785156 130.015625 32.957031 Z M 130.015625 28.589844 "/>
<path fill-rule="nonzero" fill="rgb(5.410767%, 53.253174%, 82.785034%)" fill-opacity="1" d="M 137.390625 35.726562 L 137.390625 28.589844 L 138.703125 28.589844 L 142 33.464844 L 142 28.589844 L 143.195312 28.589844 L 143.195312 35.726562 L 141.863281 35.726562 L 138.582031 30.851562 L 138.582031 35.726562 Z M 137.390625 35.726562 "/>
<path fill-rule="nonzero" fill="rgb(5.410767%, 53.253174%, 82.785034%)" fill-opacity="1" d="M 145.144531 28.589844 L 146.625 28.589844 L 146.625 35.726562 L 145.144531 35.726562 Z M 145.144531 28.589844 "/>
<path fill-rule="nonzero" fill="rgb(5.410767%, 53.253174%, 82.785034%)" fill-opacity="1" d="M 150.230469 35.726562 L 147.589844 28.589844 L 149.175781 28.589844 L 151.222656 34.113281 L 153.210938 28.589844 L 154.273438 28.589844 L 151.714844 35.726562 Z M 150.230469 35.726562 "/>
<path fill-rule="nonzero" fill="rgb(5.410767%, 53.253174%, 82.785034%)" fill-opacity="1" d="M 155.066406 35.726562 L 155.066406 28.589844 L 159.640625 28.589844 L 159.640625 29.574219 L 156.550781 29.574219 L 156.550781 31.558594 L 159.101562 31.558594 L 159.101562 32.542969 L 156.550781 32.542969 L 156.550781 34.714844 L 159.867188 34.714844 L 159.867188 35.726562 Z M 155.066406 35.726562 "/>
<path fill-rule="nonzero" fill="rgb(5.410767%, 53.253174%, 82.785034%)" fill-opacity="1" d="M 161.101562 35.726562 L 161.101562 28.589844 L 163.773438 28.589844 C 164.316406 28.589844 164.734375 28.65625 165.023438 28.792969 C 165.308594 28.929688 165.53125 29.136719 165.699219 29.414062 C 165.863281 29.695312 165.949219 30.007812 165.949219 30.359375 C 165.949219 30.777344 165.828125 31.171875 165.585938 31.542969 C 165.34375 31.914062 165.003906 32.199219 164.5625 32.394531 L 166.898438 35.726562 L 165.089844 35.726562 L 163.316406 32.8125 L 162.496094 32.8125 L 162.496094 35.726562 Z M 162.496094 31.832031 L 162.839844 31.832031 C 163.453125 31.832031 163.875 31.695312 164.109375 31.429688 C 164.34375 31.164062 164.460938 30.859375 164.460938 30.523438 C 164.460938 30.230469 164.367188 30 164.175781 29.828125 C 163.988281 29.652344 163.597656 29.570312 163.015625 29.570312 L 162.496094 29.570312 Z M 162.496094 31.832031 "/>
<path fill-rule="nonzero" fill="rgb(5.410767%, 53.253174%, 82.785034%)" fill-opacity="1" d="M 167.34375 35.667969 L 167.34375 34.4375 C 167.90625 34.675781 168.320312 34.8125 168.597656 34.855469 C 168.871094 34.90625 169.125 34.925781 169.355469 34.925781 C 169.773438 34.925781 170.085938 34.835938 170.285156 34.644531 C 170.492188 34.460938 170.59375 34.234375 170.59375 33.976562 C 170.59375 33.777344 170.539062 33.597656 170.421875 33.4375 C 170.3125 33.277344 170.027344 33.070312 169.582031 32.820312 L 169.097656 32.554688 C 168.410156 32.171875 167.949219 31.820312 167.703125 31.492188 C 167.457031 31.171875 167.332031 30.792969 167.332031 30.363281 C 167.332031 29.828125 167.539062 29.367188 167.949219 28.984375 C 168.363281 28.601562 168.949219 28.410156 169.722656 28.410156 C 170.292969 28.410156 170.941406 28.488281 171.664062 28.65625 L 171.664062 29.800781 C 170.925781 29.523438 170.339844 29.390625 169.90625 29.390625 C 169.546875 29.390625 169.273438 29.46875 169.085938 29.625 C 168.898438 29.777344 168.804688 29.96875 168.804688 30.1875 C 168.804688 30.351562 168.863281 30.507812 168.976562 30.652344 C 169.085938 30.800781 169.367188 31 169.816406 31.246094 L 170.332031 31.535156 C 171.121094 31.972656 171.621094 32.355469 171.839844 32.683594 C 172.054688 33.007812 172.160156 33.378906 172.160156 33.785156 C 172.160156 34.371094 171.9375 34.871094 171.492188 35.285156 C 171.046875 35.699219 170.335938 35.90625 169.363281 35.90625 C 168.785156 35.90625 168.113281 35.824219 167.34375 35.667969 "/>
<path fill-rule="nonzero" fill="rgb(5.410767%, 53.253174%, 82.785034%)" fill-opacity="1" d="M 173.390625 28.589844 L 174.875 28.589844 L 174.875 35.726562 L 173.390625 35.726562 Z M 173.390625 28.589844 "/>
<path fill-rule="nonzero" fill="rgb(5.410767%, 53.253174%, 82.785034%)" fill-opacity="1" d="M 177.964844 35.726562 L 177.964844 29.574219 L 175.410156 29.574219 L 175.410156 28.589844 L 182.007812 28.589844 L 182.007812 29.574219 L 179.449219 29.574219 L 179.449219 35.726562 Z M 177.964844 35.726562 "/>
<path fill-rule="nonzero" fill="rgb(5.410767%, 53.253174%, 82.785034%)" fill-opacity="1" d="M 182.554688 35.726562 L 182.554688 28.589844 L 187.128906 28.589844 L 187.128906 29.574219 L 184.039062 29.574219 L 184.039062 31.558594 L 186.59375 31.558594 L 186.59375 32.542969 L 184.039062 32.542969 L 184.039062 34.714844 L 187.355469 34.714844 L 187.355469 35.726562 Z M 182.554688 35.726562 "/>
<path fill-rule="nonzero" fill="rgb(5.410767%, 53.253174%, 82.785034%)" fill-opacity="1" d="M 188.558594 28.589844 L 190.046875 28.589844 L 190.046875 35.726562 L 188.558594 35.726562 Z M 188.558594 28.589844 "/>
<path fill-rule="nonzero" fill="rgb(5.410767%, 53.253174%, 82.785034%)" fill-opacity="1" d="M 129.292969 48.769531 L 132.070312 41.628906 L 133.5625 41.628906 L 136.34375 48.769531 L 134.8125 48.769531 L 134.070312 46.863281 L 131.113281 46.863281 L 130.375 48.769531 Z M 131.484375 45.914062 L 133.703125 45.914062 L 132.597656 43.070312 Z M 131.484375 45.914062 "/>
<path fill-rule="nonzero" fill="rgb(5.410767%, 53.253174%, 82.785034%)" fill-opacity="1" d="M 137.265625 48.769531 L 137.265625 41.628906 L 139.230469 41.628906 L 140.957031 46.652344 L 142.730469 41.628906 L 144.453125 41.628906 L 144.453125 48.769531 L 143.085938 48.769531 L 143.085938 43.378906 L 141.339844 48.292969 L 140.144531 48.292969 L 138.433594 43.304688 L 138.433594 48.769531 Z M 137.265625 48.769531 "/>
<path fill-rule="nonzero" fill="rgb(5.410767%, 53.253174%, 82.785034%)" fill-opacity="1" d="M 145.921875 48.707031 L 145.921875 47.480469 C 146.480469 47.714844 146.898438 47.855469 147.167969 47.902344 C 147.445312 47.945312 147.699219 47.96875 147.933594 47.96875 C 148.347656 47.96875 148.660156 47.875 148.863281 47.6875 C 149.074219 47.503906 149.175781 47.277344 149.175781 47.019531 C 149.175781 46.816406 149.117188 46.636719 149 46.476562 C 148.886719 46.320312 148.605469 46.113281 148.15625 45.863281 L 147.675781 45.597656 C 146.984375 45.214844 146.523438 44.859375 146.277344 44.535156 C 146.03125 44.210938 145.90625 43.835938 145.90625 43.40625 C 145.90625 42.867188 146.109375 42.410156 146.523438 42.027344 C 146.9375 41.644531 147.527344 41.449219 148.292969 41.449219 C 148.871094 41.449219 149.519531 41.53125 150.238281 41.695312 L 150.238281 42.84375 C 149.503906 42.566406 148.914062 42.429688 148.480469 42.429688 C 148.125 42.429688 147.851562 42.511719 147.660156 42.664062 C 147.472656 42.824219 147.382812 43.007812 147.382812 43.226562 C 147.382812 43.394531 147.4375 43.550781 147.550781 43.695312 C 147.664062 43.839844 147.941406 44.039062 148.390625 44.289062 L 148.90625 44.574219 C 149.695312 45.015625 150.199219 45.398438 150.414062 45.726562 C 150.628906 46.050781 150.738281 46.417969 150.738281 46.828125 C 150.738281 47.410156 150.515625 47.914062 150.066406 48.324219 C 149.621094 48.738281 148.914062 48.949219 147.9375 48.949219 C 147.359375 48.949219 146.6875 48.867188 145.921875 48.707031 "/>
<path fill-rule="nonzero" fill="rgb(5.410767%, 53.253174%, 82.785034%)" fill-opacity="1" d="M 153.234375 48.769531 L 153.234375 42.613281 L 150.679688 42.613281 L 150.679688 41.628906 L 157.277344 41.628906 L 157.277344 42.613281 L 154.71875 42.613281 L 154.71875 48.769531 Z M 153.234375 48.769531 "/>
<path fill-rule="nonzero" fill="rgb(5.410767%, 53.253174%, 82.785034%)" fill-opacity="1" d="M 157.867188 48.769531 L 157.867188 41.628906 L 162.441406 41.628906 L 162.441406 42.613281 L 159.351562 42.613281 L 159.351562 44.601562 L 161.90625 44.601562 L 161.90625 45.585938 L 159.351562 45.585938 L 159.351562 47.757812 L 162.667969 47.757812 L 162.667969 48.769531 Z M 157.867188 48.769531 "/>
<path fill-rule="nonzero" fill="rgb(5.410767%, 53.253174%, 82.785034%)" fill-opacity="1" d="M 163.800781 48.769531 L 163.800781 41.628906 L 166.472656 41.628906 C 167.023438 41.628906 167.4375 41.699219 167.726562 41.832031 C 168.011719 41.972656 168.238281 42.175781 168.402344 42.457031 C 168.570312 42.734375 168.652344 43.050781 168.652344 43.402344 C 168.652344 43.820312 168.53125 44.210938 168.289062 44.585938 C 168.046875 44.957031 167.710938 45.238281 167.265625 45.4375 L 169.605469 48.769531 L 167.792969 48.769531 L 166.019531 45.851562 L 165.203125 45.851562 L 165.203125 48.769531 Z M 165.203125 44.875 L 165.542969 44.875 C 166.15625 44.875 166.582031 44.738281 166.816406 44.472656 C 167.046875 44.203125 167.164062 43.902344 167.164062 43.5625 C 167.164062 43.273438 167.070312 43.039062 166.882812 42.867188 C 166.691406 42.695312 166.300781 42.609375 165.71875 42.609375 L 165.203125 42.609375 Z M 165.203125 44.875 "/>
<path fill-rule="nonzero" fill="rgb(5.410767%, 53.253174%, 82.785034%)" fill-opacity="1" d="M 170.363281 48.769531 L 170.363281 41.628906 L 173.441406 41.628906 C 174.261719 41.628906 174.902344 41.761719 175.363281 42.027344 C 175.820312 42.289062 176.183594 42.675781 176.457031 43.191406 C 176.726562 43.703125 176.863281 44.324219 176.863281 45.046875 C 176.863281 45.757812 176.734375 46.394531 176.472656 46.957031 C 176.21875 47.515625 175.839844 47.957031 175.34375 48.28125 C 174.847656 48.609375 174.167969 48.769531 173.308594 48.769531 Z M 171.851562 47.757812 L 172.960938 47.757812 C 173.539062 47.757812 173.980469 47.664062 174.292969 47.488281 C 174.59375 47.308594 174.839844 47 175.019531 46.574219 C 175.195312 46.144531 175.285156 45.664062 175.285156 45.136719 C 175.285156 44.632812 175.199219 44.183594 175.023438 43.792969 C 174.851562 43.40625 174.609375 43.113281 174.304688 42.910156 C 174 42.707031 173.476562 42.609375 172.746094 42.609375 L 171.851562 42.609375 Z M 171.851562 47.757812 "/>
<path fill-rule="nonzero" fill="rgb(5.410767%, 53.253174%, 82.785034%)" fill-opacity="1" d="M 177.039062 48.769531 L 179.816406 41.628906 L 181.308594 41.628906 L 184.085938 48.769531 L 182.5625 48.769531 L 181.816406 46.863281 L 178.863281 46.863281 L 178.117188 48.769531 Z M 179.234375 45.914062 L 181.449219 45.914062 L 180.339844 43.070312 Z M 179.234375 45.914062 "/>
<path fill-rule="nonzero" fill="rgb(5.410767%, 53.253174%, 82.785034%)" fill-opacity="1" d="M 184.8125 48.769531 L 184.8125 41.628906 L 186.777344 41.628906 L 188.5 46.652344 L 190.273438 41.628906 L 192 41.628906 L 192 48.769531 L 190.632812 48.769531 L 190.632812 43.378906 L 188.886719 48.292969 L 187.695312 48.292969 L 185.984375 43.304688 L 185.984375 48.769531 Z M 184.8125 48.769531 "/>
</svg>
